<?xml version="1.0" encoding="UTF-8" standalone="no"?>
<svg
   fill="none"
   viewBox="0 0 79.142715 100.05616"
   version="1.1"
   id="svg241"
   sodipodi:docname="tnb.svg"
   width="79.142715"
   height="100.05616"
   inkscape:version="1.2.2 (b0a8486, 2022-12-01)"
   xmlns:inkscape="http://www.inkscape.org/namespaces/inkscape"
   xmlns:sodipodi="http://sodipodi.sourceforge.net/DTD/sodipodi-0.dtd"
   xmlns="http://www.w3.org/2000/svg"
   xmlns:svg="http://www.w3.org/2000/svg">
  <sodipodi:namedview
     id="namedview243"
     pagecolor="#ffffff"
     bordercolor="#000000"
     borderopacity="0.25"
     inkscape:showpageshadow="2"
     inkscape:pageopacity="0.0"
     inkscape:pagecheckerboard="0"
     inkscape:deskcolor="#d1d1d1"
     showgrid="false"
     inkscape:zoom="5.2149125"
     inkscape:cx="19.367535"
     inkscape:cy="55.513875"
     inkscape:window-width="1920"
     inkscape:window-height="1027"
     inkscape:window-x="0"
     inkscape:window-y="99"
     inkscape:window-maximized="1"
     inkscape:current-layer="svg241" />
  <path
     fill="url(#a)"
     d="m 20.185924,92.408191 c 8.315011,-15.587929 7.505694,-25.984282 4.44776,-34.19055 -2.814532,-7.551578 -8.345534,-12.43622 -12.730606,-15.498561 -0.10815,0.418941 -0.258237,0.825918 -0.447986,1.214767 L 1.1518454,66.044091 c -1.15674429,2.369376 -0.75092822,5.204688 1.0240115,7.154454 L 18.417504,91.042017 c 0.505262,0.555067 1.103763,1.017432 1.76842,1.366174 z"
     id="path181"
     style="fill:none;stroke:#d0c2ee;stroke-width:1;stroke-dasharray:none;stroke-opacity:1"
     sodipodi:nodetypes="cccccccc" />
  <path
     fill="url(#b)"
     d="m 54.11952,99.317134 c 4.287207,1.189156 8.601595,-2.255259 9.195043,-6.664402 0.511339,-3.795872 1.560631,-8.207841 3.666579,-12.055815 C 62.149185,70.196104 56.306254,64.802406 49.900832,62.411818 43.12054,59.881176 35.710183,60.715468 28.201861,62.538846 c 1.678415,7.638565 0.673669,17.614494 -5.728734,30.61371 a 6.4299609,6.4299609 0 0 0 2.345478,0.626489 c 0,0 4.619794,0.389023 10.114093,0.777852 5.494299,0.388842 13.670439,3.230366 19.186822,4.760237 z"
     id="path183"
     style="fill:none;stroke:#a7a8ec;stroke-width:1;stroke-dasharray:none;stroke-opacity:1" />
  <path
     fill="url(#c)"
     d="m 45.430571,58.80126 c 2.109534,0.220272 4.177163,0.67499 6.189487,1.425861 6.406744,2.390769 12.250997,7.78466 17.083707,18.184712 0.324642,-0.594485 0.675895,-1.174047 1.05269,-1.736925 4.094299,-6.104743 6.986602,-10.862889 8.450401,-13.340873 0.672537,-1.137635 0.550412,-2.563677 -0.245571,-3.618253 -2.074047,-2.747905 -6.042634,-8.332248 -8.20483,-13.502834 -2.222975,-5.315919 -2.554808,-13.569265 -2.573683,-17.589192 -0.0074,-1.527974 -0.491708,-3.02046 -1.436808,-4.221325 L 49.040713,3.1840272 c -0.08854,-0.1126626 -0.180834,-0.2223281 -0.276717,-0.3288134 1.225779,4.0170988 1.142727,7.2482132 0.386572,10.1860152 -0.701038,2.723171 -1.980802,5.193797 -3.332481,7.803534 l -3.78e-4,3.74e-4 c -0.453391,0.875265 -0.91471,1.76619 -1.365268,2.687696 -1.793557,3.668458 -3.412703,7.819955 -3.651479,13.386922 -0.239153,5.567161 0.902252,12.54961 4.630176,21.881311 z"
     id="path185"
     style="fill:none;stroke:#c5aef4;stroke-width:1;stroke-linecap:round;stroke-linejoin:round;stroke-dasharray:none;stroke-opacity:1"
     sodipodi:nodetypes="ccccccsccccccccccc" />
  <path
     fill="url(#d)"
     d="m 43.011716,58.569366 c -3.727735,-9.331508 -4.86933,-16.314151 -4.630364,-21.881492 0.238965,-5.567354 1.858299,-9.71884 3.652044,-13.387683 0.45056,-0.9217 0.912067,-1.812625 1.365647,-2.688071 1.35149,-2.609737 2.631254,-5.080169 3.332102,-7.803159 C 47.48749,9.8707848 47.570542,6.6385343 46.343631,2.6199251 43.987016,0.00434025 39.918766,-0.24217617 37.260898,2.148412 L 17.374925,20.034905 a 6.4356236,6.4356236 0 0 0 -2.059889,3.824569 l -2.420792,16.04725 a 6.4461938,6.4461938 0 0 1 -0.08306,0.443952 c 4.482003,2.918722 10.169021,7.622519 13.226485,15.080058 a 28.448684,28.448684 0 0 1 1.462101,4.692089 c 5.28044,-1.2824 10.512746,-2.075368 15.511939,-1.553457 z"
     id="path187"
     style="fill:none;stroke:#dacaf8;stroke-width:1;stroke-dasharray:none;stroke-opacity:1" />
  <defs
     id="defs239">
    <radialGradient
       id="a"
       cx="0"
       cy="0"
       r="1"
       gradientTransform="matrix(-58.62103,-225.469,150.25169,-39.06483,104.27,469.791)"
       gradientUnits="userSpaceOnUse">
      <stop
         stop-color="#fff"
         stop-opacity=".4"
         id="stop197" />
      <stop
         offset="1"
         stop-opacity=".1"
         id="stop199" />
    </radialGradient>
    <radialGradient
       id="b"
       cx="0"
       cy="0"
       r="1"
       gradientTransform="matrix(-96.2568,-163.00152,187.15886,-110.52237,278.11,511.988)"
       gradientUnits="userSpaceOnUse">
      <stop
         stop-color="#fff"
         stop-opacity=".3"
         id="stop202" />
      <stop
         offset="1"
         stop-opacity=".25"
         id="stop204" />
    </radialGradient>
    <radialGradient
       id="c"
       cx="0"
       cy="0"
       r="1"
       gradientTransform="matrix(49.997299,-379.00043,280.00808,36.938342,302.82787,374.0002)"
       gradientUnits="userSpaceOnUse">
      <stop
         stop-color="#fff"
         stop-opacity=".55"
         id="stop207" />
      <stop
         offset="1"
         stop-color="#fff"
         stop-opacity=".05"
         id="stop209" />
    </radialGradient>
    <radialGradient
       id="d"
       cx="0"
       cy="0"
       r="1"
       gradientTransform="matrix(69.42463,-318.98248,217.53833,47.34592,118.23,306.884)"
       gradientUnits="userSpaceOnUse">
      <stop
         stop-color="#fff"
         stop-opacity=".83"
         id="stop212" />
      <stop
         offset="1"
         stop-color="#fff"
         stop-opacity=".4"
         id="stop214" />
    </radialGradient>
    <radialGradient
       id="e"
       cx="0"
       cy="0"
       r="1"
       gradientTransform="matrix(-5.6237507,25.931981,-17.486862,-3.7922954,39.819168,20.384047)"
       gradientUnits="userSpaceOnUse">
      <stop
         stop-color="#fff"
         stop-opacity="0"
         id="stop217" />
      <stop
         offset="1"
         stop-color="#fff"
         stop-opacity=".17"
         id="stop219" />
    </radialGradient>
    <radialGradient
       id="f"
       cx="0"
       cy="0"
       r="1"
       gradientTransform="matrix(13.74706,13.903277,-29.612669,29.279944,8.7319348,34.755957)"
       gradientUnits="userSpaceOnUse">
      <stop
         stop-color="#fff"
         stop-opacity=".2"
         id="stop222" />
      <stop
         offset="1"
         stop-color="#fff"
         stop-opacity=".44"
         id="stop224" />
    </radialGradient>
    <radialGradient
       id="g"
       cx="0"
       cy="0"
       r="1"
       gradientTransform="matrix(3.8999473,22.582044,-47.953898,8.2816974,23.493141,44.007727)"
       gradientUnits="userSpaceOnUse">
      <stop
         stop-color="#fff"
         stop-opacity=".25"
         id="stop227" />
      <stop
         offset="1"
         stop-color="#fff"
         stop-opacity=".3"
         id="stop229" />
    </radialGradient>
    <radialGradient
       id="h"
       cx="0"
       cy="0"
       r="1"
       gradientTransform="matrix(-30.915994,-16.233325,51.085355,-97.290886,53.878807,62.718557)"
       gradientUnits="userSpaceOnUse">
      <stop
         stop-color="#fff"
         stop-opacity=".21"
         id="stop232" />
      <stop
         offset=".467"
         stop-color="#fff"
         stop-opacity=".19"
         id="stop234" />
      <stop
         offset="1"
         stop-color="#fff"
         stop-opacity=".29"
         id="stop236" />
    </radialGradient>
  </defs>
</svg>
